# xmcd
#
# Track frame offsets:
#	150
#	15314
#	30882
#	45788
#	59023
#	77412
#	91051
#	106856
#	121581
#	137054
#	149439
#
# Disc length: 2176 seconds
#
# Revision: 0
# Processed by: cddbd v1.5.1PL2 Copyright (c) Steve Scherf et al.
# Submitted via: EasyCDDAExtractor 8.2.3.1
#
DISCID=74087e0b
DTITLE=Jacó e Jacózinho - 73
DYEAR=1973
DGENRE=Sertanejo
TTITLE0=Pare de tomar a pinga
TTITLE1=Gente de minha terra
TTITLE2=Mulher é na cozinha
TTITLE3=Os fofoqueiros
TTITLE4=No dia que me casei
TTITLE5=Centelha divina
TTITLE6=Faz um ano
TTITLE7=Brasil caboclo exportação
TTITLE8=Bóia fria
TTITLE9=O machão
TTITLE10=Meu barraco
EXTD=
EXTT0=
EXTT1=
EXTT2=
EXTT3=
EXTT4=
EXTT5=
EXTT6=
EXTT7=
EXTT8=
EXTT9=
EXTT10=
PLAYORDER=
